<?xml version="1.0" standalone="no"?>
<!DOCTYPE svg PUBLIC "-//W3C//DTD SVG 20010904//EN"
 "http://www.w3.org/TR/2001/REC-SVG-20010904/DTD/svg10.dtd">
<svg version="1.0" xmlns="http://www.w3.org/2000/svg"
 width="200.000000pt" height="200.000000pt" viewBox="0 0 200.000000 200.000000"
 preserveAspectRatio="xMidYMid meet">

<g transform="translate(0.000000,200.000000) scale(0.100000,-0.100000)"
fill="#000000" stroke="none">
<path d="M1013 1793 l-62 -14 -181 -186 c-187 -193 -251 -287 -87 -128 364
354 374 360 64 36 -98 -101 -177 -191 -177 -200 0 -15 39 20 308 284 72 71
132 126 132 121 0 -4 -100 -111 -222 -238 -123 -126 -225 -234 -227 -240 -9
-25 31 9 241 212 123 118 232 222 243 230 11 8 -90 -99 -225 -238 -135 -140
-247 -261 -249 -270 -2 -9 78 62 178 158 100 96 225 215 279 264 l97 90 -120
-125 c-356 -367 -425 -440 -425 -450 0 -6 81 67 180 162 385 370 423 402 180
150 -430 -446 -462 -492 -98 -141 353 342 376 359 112 85 -274 -284 -349 -365
-339 -365 4 0 116 105 249 234 357 346 389 370 120 91 -286 -297 -363 -380
-347 -374 6 2 116 105 245 229 381 367 403 386 178 151 -311 -324 -400 -418
-400 -426 0 -7 41 32 451 425 210 201 191 178 -191 -218 -357 -370 -309 -333
195 152 244 235 204 188 -168 -196 -349 -362 -299 -322 214 172 236 226 197
182 -187 -216 -118 -122 -214 -225 -214 -229 0 -7 79 68 441 415 221 212 176
160 -200 -229 -325 -337 -270 -293 190 149 266 255 254 240 -99 -126 -139
-144 -252 -265 -252 -268 0 -10 113 95 382 354 257 248 225 207 -101 -129
-134 -138 -239 -251 -233 -251 6 0 129 114 274 254 144 140 265 252 267 250 2
-2 -110 -121 -249 -264 -139 -143 -250 -263 -247 -266 3 -3 77 63 164 147 87
84 198 192 247 239 158 152 87 67 -141 -168 -222 -229 -222 -229 -196 -241 46
-21 180 -25 263 -7 119 25 213 77 300 165 117 119 170 246 170 411 0 165 -53
293 -170 411 -150 152 -353 211 -557 162z m388 -760 c-6 -10 -86 -96 -178
-190 -114 -117 -177 -175 -196 -179 -23 -5 2 23 115 133 170 165 262 253 266
253 1 0 -2 -8 -7 -17z m-62 -135 c-18 -34 -150 -160 -190 -181 -23 -12 3 18
80 92 63 61 116 111 118 111 2 0 -2 -10 -8 -22z"/>
<path d="M844 1721 c-67 -44 -172 -150 -199 -200 l-17 -35 38 32 c45 35 252
242 243 242 -3 0 -32 -17 -65 -39z"/>
<path d="M837 533 c-2 -5 -7 -21 -11 -38 -4 -16 -13 -34 -19 -38 -9 -6 -9 -10
1 -14 8 -3 12 -31 12 -89 0 -67 3 -84 15 -84 11 0 15 18 17 83 3 81 3 82 31
85 37 4 35 22 -3 22 -19 0 -30 5 -30 14 0 32 13 46 41 46 16 0 29 5 29 10 0
12 -77 14 -83 3z"/>
<path d="M972 528 c-7 -7 -12 -25 -12 -40 0 -18 -5 -28 -15 -28 -8 0 -15 -4
-15 -9 0 -5 7 -11 15 -15 12 -4 15 -24 15 -86 0 -106 18 -104 22 3 3 81 3 82
31 85 37 4 35 22 -3 22 -16 0 -30 5 -30 11 0 25 22 49 45 49 14 0 25 5 25 10
0 14 -64 12 -78 -2z"/>
<path d="M730 510 c0 -11 7 -20 15 -20 8 0 15 9 15 20 0 11 -7 20 -15 20 -8 0
-15 -9 -15 -20z"/>
<path d="M1080 509 c0 -24 23 -21 28 4 2 10 -3 17 -12 17 -10 0 -16 -9 -16
-21z"/>
<path d="M1170 485 c0 -16 -6 -25 -15 -25 -8 0 -15 -4 -15 -10 0 -5 7 -10 15
-10 12 0 15 -15 15 -73 0 -80 9 -97 52 -97 33 0 38 17 6 22 -21 3 -23 9 -26
76 -3 71 -3 72 23 72 14 0 25 5 25 10 0 6 -11 10 -25 10 -20 0 -25 5 -25 25 0
16 -6 25 -15 25 -9 0 -15 -9 -15 -25z"/>
<path d="M540 440 c-24 -24 -26 -62 -5 -80 13 -11 13 -14 0 -27 -9 -9 -13 -24
-9 -38 3 -12 1 -26 -5 -29 -16 -10 -13 -52 5 -70 19 -20 122 -22 147 -3 28 21
32 62 8 86 -16 16 -34 21 -76 21 -42 0 -55 3 -55 15 0 10 10 15 34 15 75 0
113 40 86 89 -9 17 -8 21 4 21 8 0 18 5 21 10 4 6 -20 10 -64 10 -58 0 -75 -4
-91 -20z m100 -14 c6 -8 10 -25 8 -38 -3 -20 -9 -23 -48 -23 -42 0 -45 2 -48
29 -2 16 2 32 10 37 21 14 64 10 78 -5z m11 -156 c21 -12 25 -40 7 -58 -13
-13 -75 -16 -102 -6 -21 8 -20 50 2 63 22 13 68 14 93 1z"/>
<path d="M730 365 c0 -78 3 -95 15 -95 12 0 15 17 15 95 0 78 -3 95 -15 95
-12 0 -15 -17 -15 -95z"/>
<path d="M1080 365 c0 -78 3 -95 15 -95 12 0 15 17 15 95 0 78 -3 95 -15 95
-12 0 -15 -17 -15 -95z"/>
<path d="M1275 448 c2 -7 13 -44 25 -83 12 -38 31 -78 41 -87 16 -13 18 -24
13 -57 -4 -23 -4 -41 -1 -41 12 0 29 44 57 140 15 54 31 107 35 119 4 15 2 21
-8 21 -10 0 -22 -25 -37 -72 -32 -110 -29 -104 -43 -87 -7 8 -23 47 -36 87
-14 45 -27 72 -36 72 -8 0 -13 -6 -10 -12z"/>
</g>
</svg>
